# xmcd
#
# Track frame offsets: 
#        150
#        11722
#        24687
#        46472
#        66570
#        88975
#        107417
#        122207
#        141122
#        156702
#        172332
#        189437
#
# Disc length: 2885 seconds
#
# Revision: 6
# Processed by: cddbd v1.5.1PL0 Copyright (c) Steve Scherf et al.
# Submitted via: ExactAudioCopy v0.95a5
#
DISCID=b60b430c
DTITLE=Motörhead - Bastards
DYEAR=1993
DGENRE=Hard Rock
TTITLE0=On Your Feet Or On Your Knees
TTITLE1=Burner
TTITLE2=Death Or Glory
TTITLE3=I Am The Sword
TTITLE4=Born To Raise Hell
TTITLE5=Don?t Let Daddy Kiss Me
TTITLE6=Bad Woman
TTITLE7=Liar
TTITLE8=Lost In The Ozone
TTITLE9=I?m Your Man
TTITLE10=We Bring The Shake
TTITLE11=Devils
EXTD=P&C 1993 Motorhead/ZYX Music YEAR: 1993
EXTT0=
EXTT1=
EXTT2=
EXTT3=
EXTT4=
EXTT5=
EXTT6=
EXTT7=
EXTT8=
EXTT9=
EXTT10=
EXTT11=
PLAYORDER=
